<?xml version="1.0" encoding="UTF-8" standalone="no"?>
<svg
   enable-background="new 0 0 850.39 793.7"
   version="1.1"
   viewBox="0 0 63.999999 63.999999"
   xml:space="preserve"
   id="svg6"
   sodipodi:docname="gear1_sized.svg"
   width="64"
   height="64"
   inkscape:version="1.1 (c68e22c387, 2021-05-23)"
   xmlns:inkscape="http://www.inkscape.org/namespaces/inkscape"
   xmlns:sodipodi="http://sodipodi.sourceforge.net/DTD/sodipodi-0.dtd"
   xmlns="http://www.w3.org/2000/svg"
   xmlns:svg="http://www.w3.org/2000/svg"><defs
   id="defs10" /><sodipodi:namedview
   id="namedview8"
   pagecolor="#ffffff"
   bordercolor="#666666"
   borderopacity="1.0"
   inkscape:pageshadow="2"
   inkscape:pageopacity="0.0"
   inkscape:pagecheckerboard="0"
   showgrid="false"
   width="64px"
   inkscape:zoom="0.93864179"
   inkscape:cx="377.67336"
   inkscape:cy="396.85001"
   inkscape:window-width="1920"
   inkscape:window-height="1017"
   inkscape:window-x="-8"
   inkscape:window-y="-8"
   inkscape:window-maximized="1"
   inkscape:current-layer="svg6" />
	<path
   d="m 57.47627,32.361419 c 0.0101,-0.3074 0.24289,-0.67163 0.51803,-0.80938 l 5.58624,-2.7974 c 0.27494,-0.13776 0.46023,-0.49883 0.41157,-0.80267 l -1.28787,-5.93574 c -0.0824,-0.29639 -0.40115,-0.55494 -0.70797,-0.57488 l -6.35274,-0.41084 c -0.30701,-0.0199 -0.67199,-0.26061 -0.81105,-0.53481 l -0.86381,-1.58837 c -0.15472,-0.26581 -0.15305,-0.69976 0.004,-0.96427 l 3.20787,-5.40877 c 0.15696,-0.26451 0.11949,-0.67032 -0.0831,-0.90165 l -4.3224,-4.4074001 c -0.22741,-0.2071 -0.63359,-0.25444 -0.90239,-0.10513 l -5.52751,3.0673201 c -0.26899,0.14931 -0.70425,0.14092 -0.96745,-0.0183 L 43.88401,9.3207889 c -0.2716,-0.14427 -0.50292,-0.51392 -0.51392,-0.8213 l -0.22742,-6.33671 c -0.011,-0.30738 -0.26097,-0.63154 -0.5553,-0.72046 L 36.60073,0.00996895 c -0.30272,-0.0548 -0.66938,0.12191 -0.81496,0.39295 L 32.81295,5.9365789 c -0.14558,0.27104 -0.39182,0.49025 -0.54729,0.48727 h -0.14185 c -0.86269,0 -1.99772,0.0856 -1.99772,0.0856 -0.30664,0.0231 -0.70126,-0.1646 -0.87667,-0.41736 L 25.61543,0.86003895 c -0.17541,-0.25259 -0.56146,-0.39202 -0.85785,-0.31 l -5.7182,1.92892995 c -0.28539,0.11483 -0.4992,0.45969 -0.47515,0.76632 l 0.48745,6.21889 c 0.024,0.30664 -0.16777,0.6939901 -0.42613,0.8608301 l -1.81802,1.2588 c -0.24699,0.18325 -0.6815,0.23711 -0.96577,0.11949 L 9.95448,9.2658389 c -0.28427,-0.11762 -0.68504,-0.0268 -0.89084,0.2017 L 5.39442,14.017529 c -0.17988,0.24942 -0.17504,0.65392 0.011,0.89886 l 3.75422,4.94461 c 0.18604,0.24494 0.23245,0.67368 0.10327,0.95291 l -1.02095,2.44417 c -0.10792,0.288 -0.44402,0.56835 -0.74674,0.62297 l -6.24592,1.12794 c -0.30273,0.0546 -0.58979,0.34784 -0.63826,0.65168 0,0 -0.61104,3.84091 -0.61104,6.13371 v 0.0123 c 1.9e-4,0.0136 0.23692,0.11091 0.52567,0.21642 l 5.82874,2.12895 c 0.28893,0.1055 0.56071,0.44104 0.60415,0.74544 l 0.54635,2.97915 c 0.0682,0.29992 -0.0602,0.71673 -0.2852,0.92644 l -4.61654,4.29946 c -0.225,0.20971 -0.30534,0.6103 -0.17839,0.89047 l 2.51779,4.88161 c 0.15509,0.26563 0.52753,0.42779 0.82764,0.36032 l 6.0804,-1.36617 c 0.30011,-0.0675 0.71207,0.066 0.91563,0.29656 l 2.24135,2.33065 c 0.22238,0.21251 0.34224,0.63005 0.26619,0.92812 l -1.54755,6.06716 c -0.0761,0.29807 0.0744,0.67665 0.33423,0.84125 l 4.74665,2.67494 c 0.27533,0.13719 0.67722,0.0703 0.89326,-0.14858 l 4.40293,-4.46331 c 0.21604,-0.21902 0.63583,-0.33273 0.93277,-0.25295 l 3.1307,0.69586 c 0.30273,0.0541 0.63006,0.33702 0.72716,0.62893 l 1.96455,5.89957 c 0.0971,0.29174 0.42818,0.5376 0.73575,0.54637 0,0 0.16478,0.005 0.52902,0.005 1.88848,0 4.98283,-0.4045 4.98283,-0.4045 0.30495,-0.0399 0.60638,-0.31876 0.66957,-0.6198 l 1.30038,-6.18013 c 0.0634,-0.30104 0.3538,-0.62707 0.64552,-0.72456 l 2.75435,-1.04425 c 0.28296,-0.12079 0.71019,-0.0617 0.94974,0.13123 l 4.83165,3.89236 c 0.23954,0.19293 0.64367,0.20952 0.8981,0.0367 l 4.53564,-3.43957 c 0.23489,-0.19871 0.33741,-0.59632 0.22799,-0.88376 l -2.26187,-5.94021 c -0.10941,-0.28744 -0.0429,-0.72009 0.14783,-0.9613 l 1.4974,-2.04115 c 0.17299,-0.25426 0.56463,-0.43564 0.87052,-0.40264 l 6.1818,0.66361 c 0.3059,0.0328 0.65559,-0.1715 0.77732,-0.4539 l 2.02493,-5.5374 c 0.0899,-0.29415 -0.039,-0.68429 -0.2865,-0.86679 l -5.13028,-3.7861 c -0.24755,-0.18268 -0.42613,-0.58252 -0.39687,-0.88879 z m -25.43516,18.27361 c -10.33904,0 -18.72081,-8.38139 -18.72081,-18.7208 0,-10.33923 8.3814,-18.72081 18.72081,-18.72081 10.33941,0 18.72081,8.3814 18.72081,18.72081 0,10.33941 -8.3814,18.7208 -18.72081,18.7208 z"
   fill="#1e1b1b"
   id="path2"
   style="stroke-width:0.186407" />
<ellipse
   cx="572"
   cy="322"
   rx="0"
   ry="2"
   id="ellipse4" />
</svg>
